<svg width="301" height="431" viewBox="0 0 301 431" fill="none" xmlns="http://www.w3.org/2000/svg">
<path d="M327.324 242.3C317.15 242.99 312.471 255.183 319.364 262.501L319.701 262.846L396.407 338.607L396.407 338.607C405.785 347.854 393.972 362.779 382.812 355.789L291.463 298.553C282.692 293.059 271.542 300.484 273.215 310.697L273.216 310.697L290.743 417.074C292.879 430.058 274.555 435.19 269.636 422.976L229.373 322.98L229.372 322.98C225.508 313.363 212.124 312.818 207.474 322.074L159.129 418.423C153.222 430.194 135.381 423.575 138.581 410.8L164.779 306.233C167.285 296.2 156.783 287.884 147.588 292.637L51.8306 342.167C40.1354 348.217 29.5922 332.375 39.6804 323.927L122.351 254.724C130.298 248.079 126.67 235.173 116.44 233.616L9.86444 217.42C-3.14789 215.44 -2.36905 196.442 10.7673 195.528L10.7669 195.529L118.325 188.132C128.661 187.43 133.325 174.859 125.948 167.586L125.947 167.586L49.2422 91.8258L49.2413 91.8255C39.864 82.579 51.6766 67.6539 62.8365 74.6436L154.185 131.881C162.818 137.287 173.775 130.185 172.504 120.213L172.434 119.736L154.906 13.3571L154.907 13.3574C152.776 0.353562 171.101 -4.77029 176.019 7.44004L216.298 107.442C220.167 117.041 233.546 117.606 238.197 108.348L286.542 11.9998C292.449 0.2288 310.29 6.848 307.09 19.6231L280.892 124.189C278.38 134.239 288.889 142.538 298.083 137.785L393.824 88.2489C405.516 82.2013 416.065 98.0381 405.969 106.505L323.298 175.709C315.351 182.354 318.978 195.26 329.209 196.817L435.784 213.013C448.799 214.993 448.01 234.005 434.883 234.904L434.882 234.904L327.324 242.3Z" fill="#C2B4A3" stroke="black"/>
</svg>
